<?xml version="1.0" encoding="UTF-8"?>
<svg id="Layer_2" data-name="Layer 2" xmlns="http://www.w3.org/2000/svg" viewBox="0 0 138.91 138.91">
  <defs>
    <style>
      .cls-1 {
        fill: #f6ece8;
      }

      .cls-1, .cls-2 {
        stroke-width: 0px;
      }

      .cls-2 {
        fill: #ead0c6;
      }
    </style>
  </defs>
  <g id="tipo_contornos" data-name="tipo contornos">
    <g>
      <circle class="cls-1" cx="69.46" cy="69.45" r="69.32"/>
      <g>
        <g>
          <path class="cls-2" d="M77.83,31.41c0-1.97.72-3.67,2.15-5.11,1.44-1.44,3.16-2.15,5.16-2.15s3.77.72,5.21,2.15c1.44,1.4,2.15,3.12,2.15,5.16s-.72,3.77-2.15,5.21c-1.4,1.44-3.12,2.15-5.16,2.15s-3.77-.72-5.21-2.15c-1.44-1.44-2.15-3.19-2.15-5.26ZM91.11,45.13v66.16h-11.49V45.13h11.49Z"/>
          <path class="cls-2" d="M98.2,86.57c0-1.97.72-3.68,2.17-5.12,1.44-1.44,3.17-2.16,5.17-2.16s3.73.72,5.17,2.16c1.44,1.44,2.16,3.17,2.16,5.17s-.72,3.78-2.16,5.23c-1.41,1.41-3.13,2.11-5.17,2.11s-3.82-.7-5.23-2.11c-1.41-1.41-2.11-3.17-2.11-5.28Z"/>
          <path class="cls-2" d="M59,80.34c-2.49,2.85-5.64,4.27-9.45,4.27-4.08,0-7.36-1.43-9.86-4.29-1.65-1.91-2.75-4.16-3.33-6.74h36.81c.21-1.42.32-2.88.32-4.4,0-7.13-2.35-13.15-7.04-18.04-4.76-4.9-10.55-7.35-17.37-7.35s-12.55,2.43-17.27,7.3c-4.73,4.86-7.09,10.76-7.09,17.7,0,7.36,2.32,13.48,6.95,18.34,4.63,4.93,10.37,7.39,17.23,7.39s12.75-2.42,17.51-7.25c2.03-2.09,3.63-4.41,4.78-6.93h-12.19ZM39.68,58.04c2.53-2.83,5.83-4.24,9.91-4.24,3.85,0,7.03,1.46,9.56,4.39,1.47,1.7,2.49,3.71,3.1,6h-25.78c.6-2.38,1.67-4.43,3.21-6.15Z"/>
        </g>
        <path class="cls-2" d="M69.45,0C31.16,0,0,31.16,0,69.45s31.16,69.45,69.45,69.45,69.45-31.16,69.45-69.45S107.75,0,69.45,0ZM126.68,69.45c0,31.56-25.67,57.23-57.23,57.23S12.23,101.01,12.23,69.45,37.9,12.23,69.45,12.23s57.23,25.67,57.23,57.23Z"/>
      </g>
    </g>
  </g>
</svg>